<mxfile host="app.diagrams.net" modified="2024-10-03T12:53:47.765Z" agent="Mozilla/5.0 (Windows NT 10.0; Win64; x64) AppleWebKit/537.36 (KHTML, like Gecko) Chrome/126.0.0.0 YaBrowser/24.7.0.0 Safari/537.36" etag="m4t_X6oVza8Ptm62h-4g" version="24.4.13" type="github">
  <diagram name="Страница — 1" id="71HKx7Ur7hoA2psos9gx">
    <mxGraphModel dx="1786" dy="1217" grid="0" gridSize="10" guides="1" tooltips="1" connect="1" arrows="1" fold="1" page="0" pageScale="1" pageWidth="827" pageHeight="1169" math="0" shadow="0">
      <root>
        <mxCell id="0" />
        <mxCell id="1" parent="0" />
        <mxCell id="4csjqJWBOvryWPXmlcey-7" style="edgeStyle=none;curved=1;rounded=0;orthogonalLoop=1;jettySize=auto;html=1;exitX=0.5;exitY=1;exitDx=0;exitDy=0;entryX=0.5;entryY=0;entryDx=0;entryDy=0;fontSize=12;startSize=8;endSize=8;" edge="1" parent="1" source="4csjqJWBOvryWPXmlcey-1" target="4csjqJWBOvryWPXmlcey-4">
          <mxGeometry relative="1" as="geometry" />
        </mxCell>
        <mxCell id="4csjqJWBOvryWPXmlcey-8" style="edgeStyle=none;curved=1;rounded=0;orthogonalLoop=1;jettySize=auto;html=1;exitX=0.5;exitY=1;exitDx=0;exitDy=0;entryX=0.5;entryY=0;entryDx=0;entryDy=0;fontSize=12;startSize=8;endSize=8;" edge="1" parent="1" source="4csjqJWBOvryWPXmlcey-1" target="4csjqJWBOvryWPXmlcey-6">
          <mxGeometry relative="1" as="geometry" />
        </mxCell>
        <mxCell id="4csjqJWBOvryWPXmlcey-29" style="edgeStyle=none;curved=1;rounded=0;orthogonalLoop=1;jettySize=auto;html=1;exitX=0;exitY=0.5;exitDx=0;exitDy=0;entryX=1;entryY=0.5;entryDx=0;entryDy=0;fontSize=12;startSize=8;endSize=8;" edge="1" parent="1" source="4csjqJWBOvryWPXmlcey-1" target="4csjqJWBOvryWPXmlcey-10">
          <mxGeometry relative="1" as="geometry" />
        </mxCell>
        <mxCell id="4csjqJWBOvryWPXmlcey-1" value="300" style="rounded=0;whiteSpace=wrap;html=1;" vertex="1" parent="1">
          <mxGeometry x="176" y="-29" width="120" height="60" as="geometry" />
        </mxCell>
        <mxCell id="4csjqJWBOvryWPXmlcey-20" style="edgeStyle=none;curved=1;rounded=0;orthogonalLoop=1;jettySize=auto;html=1;exitX=0.5;exitY=1;exitDx=0;exitDy=0;entryX=0;entryY=0.5;entryDx=0;entryDy=0;fontSize=12;startSize=8;endSize=8;" edge="1" parent="1" source="4csjqJWBOvryWPXmlcey-2" target="4csjqJWBOvryWPXmlcey-6">
          <mxGeometry relative="1" as="geometry" />
        </mxCell>
        <mxCell id="4csjqJWBOvryWPXmlcey-21" value="" style="edgeStyle=none;curved=1;rounded=0;orthogonalLoop=1;jettySize=auto;html=1;fontSize=12;startSize=8;endSize=8;" edge="1" parent="1" source="4csjqJWBOvryWPXmlcey-2" target="4csjqJWBOvryWPXmlcey-4">
          <mxGeometry relative="1" as="geometry" />
        </mxCell>
        <mxCell id="4csjqJWBOvryWPXmlcey-28" style="edgeStyle=none;curved=1;rounded=0;orthogonalLoop=1;jettySize=auto;html=1;exitX=0;exitY=0.5;exitDx=0;exitDy=0;entryX=0.5;entryY=1;entryDx=0;entryDy=0;fontSize=12;startSize=8;endSize=8;" edge="1" parent="1" source="4csjqJWBOvryWPXmlcey-2" target="4csjqJWBOvryWPXmlcey-12">
          <mxGeometry relative="1" as="geometry">
            <Array as="points">
              <mxPoint x="-402" y="596" />
            </Array>
          </mxGeometry>
        </mxCell>
        <mxCell id="4csjqJWBOvryWPXmlcey-31" style="edgeStyle=none;curved=1;rounded=0;orthogonalLoop=1;jettySize=auto;html=1;exitX=0.5;exitY=0;exitDx=0;exitDy=0;entryX=1;entryY=0.5;entryDx=0;entryDy=0;fontSize=12;startSize=8;endSize=8;" edge="1" parent="1" source="4csjqJWBOvryWPXmlcey-2" target="4csjqJWBOvryWPXmlcey-11">
          <mxGeometry relative="1" as="geometry">
            <Array as="points">
              <mxPoint x="971" y="-420" />
            </Array>
          </mxGeometry>
        </mxCell>
        <mxCell id="4csjqJWBOvryWPXmlcey-2" value="200" style="rounded=0;whiteSpace=wrap;html=1;" vertex="1" parent="1">
          <mxGeometry x="-99" y="-29" width="120" height="60" as="geometry" />
        </mxCell>
        <mxCell id="4csjqJWBOvryWPXmlcey-19" style="edgeStyle=none;curved=1;rounded=0;orthogonalLoop=1;jettySize=auto;html=1;exitX=0.5;exitY=1;exitDx=0;exitDy=0;entryX=1;entryY=0.5;entryDx=0;entryDy=0;fontSize=12;startSize=8;endSize=8;" edge="1" parent="1" source="4csjqJWBOvryWPXmlcey-3" target="4csjqJWBOvryWPXmlcey-6">
          <mxGeometry relative="1" as="geometry" />
        </mxCell>
        <mxCell id="4csjqJWBOvryWPXmlcey-27" style="edgeStyle=none;curved=1;rounded=0;orthogonalLoop=1;jettySize=auto;html=1;entryX=0.5;entryY=1;entryDx=0;entryDy=0;fontSize=12;startSize=8;endSize=8;exitX=1;exitY=0.5;exitDx=0;exitDy=0;" edge="1" parent="1" source="4csjqJWBOvryWPXmlcey-3" target="4csjqJWBOvryWPXmlcey-12">
          <mxGeometry relative="1" as="geometry">
            <Array as="points">
              <mxPoint x="944" y="582" />
            </Array>
          </mxGeometry>
        </mxCell>
        <mxCell id="4csjqJWBOvryWPXmlcey-3" value="400" style="rounded=0;whiteSpace=wrap;html=1;" vertex="1" parent="1">
          <mxGeometry x="423" y="-29" width="120" height="60" as="geometry" />
        </mxCell>
        <mxCell id="4csjqJWBOvryWPXmlcey-25" value="" style="edgeStyle=none;curved=1;rounded=0;orthogonalLoop=1;jettySize=auto;html=1;fontSize=12;startSize=8;endSize=8;" edge="1" parent="1" source="4csjqJWBOvryWPXmlcey-4" target="4csjqJWBOvryWPXmlcey-10">
          <mxGeometry relative="1" as="geometry" />
        </mxCell>
        <mxCell id="4csjqJWBOvryWPXmlcey-32" style="edgeStyle=none;curved=1;rounded=0;orthogonalLoop=1;jettySize=auto;html=1;exitX=0.5;exitY=1;exitDx=0;exitDy=0;entryX=0;entryY=0.5;entryDx=0;entryDy=0;fontSize=12;startSize=8;endSize=8;" edge="1" parent="1" source="4csjqJWBOvryWPXmlcey-4" target="4csjqJWBOvryWPXmlcey-12">
          <mxGeometry relative="1" as="geometry" />
        </mxCell>
        <mxCell id="4csjqJWBOvryWPXmlcey-4" value="d1" style="rounded=0;whiteSpace=wrap;html=1;" vertex="1" parent="1">
          <mxGeometry x="-99" y="165" width="120" height="60" as="geometry" />
        </mxCell>
        <mxCell id="4csjqJWBOvryWPXmlcey-26" style="edgeStyle=none;curved=1;rounded=0;orthogonalLoop=1;jettySize=auto;html=1;exitX=0.5;exitY=1;exitDx=0;exitDy=0;entryX=0.5;entryY=0;entryDx=0;entryDy=0;fontSize=12;startSize=8;endSize=8;" edge="1" parent="1" source="4csjqJWBOvryWPXmlcey-5" target="4csjqJWBOvryWPXmlcey-10">
          <mxGeometry relative="1" as="geometry" />
        </mxCell>
        <mxCell id="4csjqJWBOvryWPXmlcey-5" value="d3" style="rounded=0;whiteSpace=wrap;html=1;" vertex="1" parent="1">
          <mxGeometry x="423" y="165" width="120" height="60" as="geometry" />
        </mxCell>
        <mxCell id="4csjqJWBOvryWPXmlcey-22" value="" style="edgeStyle=none;curved=1;rounded=0;orthogonalLoop=1;jettySize=auto;html=1;fontSize=12;startSize=8;endSize=8;" edge="1" parent="1" source="4csjqJWBOvryWPXmlcey-6" target="4csjqJWBOvryWPXmlcey-12">
          <mxGeometry relative="1" as="geometry" />
        </mxCell>
        <mxCell id="4csjqJWBOvryWPXmlcey-23" style="edgeStyle=none;curved=1;rounded=0;orthogonalLoop=1;jettySize=auto;html=1;exitX=0.5;exitY=1;exitDx=0;exitDy=0;entryX=1;entryY=0.5;entryDx=0;entryDy=0;fontSize=12;startSize=8;endSize=8;" edge="1" parent="1" source="4csjqJWBOvryWPXmlcey-6" target="4csjqJWBOvryWPXmlcey-10">
          <mxGeometry relative="1" as="geometry" />
        </mxCell>
        <mxCell id="4csjqJWBOvryWPXmlcey-6" value="d2" style="rounded=0;whiteSpace=wrap;html=1;" vertex="1" parent="1">
          <mxGeometry x="176" y="165" width="120" height="60" as="geometry" />
        </mxCell>
        <mxCell id="4csjqJWBOvryWPXmlcey-9" style="edgeStyle=none;curved=1;rounded=0;orthogonalLoop=1;jettySize=auto;html=1;exitX=0.5;exitY=1;exitDx=0;exitDy=0;entryX=0.456;entryY=0;entryDx=0;entryDy=0;entryPerimeter=0;fontSize=12;startSize=8;endSize=8;" edge="1" parent="1" source="4csjqJWBOvryWPXmlcey-1" target="4csjqJWBOvryWPXmlcey-5">
          <mxGeometry relative="1" as="geometry" />
        </mxCell>
        <mxCell id="4csjqJWBOvryWPXmlcey-10" value="п1" style="rounded=0;whiteSpace=wrap;html=1;" vertex="1" parent="1">
          <mxGeometry x="-96" y="359" width="120" height="60" as="geometry" />
        </mxCell>
        <mxCell id="4csjqJWBOvryWPXmlcey-11" value="п3" style="rounded=0;whiteSpace=wrap;html=1;" vertex="1" parent="1">
          <mxGeometry x="423" y="359" width="120" height="60" as="geometry" />
        </mxCell>
        <mxCell id="4csjqJWBOvryWPXmlcey-12" value="п2" style="rounded=0;whiteSpace=wrap;html=1;" vertex="1" parent="1">
          <mxGeometry x="180" y="470" width="120" height="60" as="geometry" />
        </mxCell>
        <mxCell id="4csjqJWBOvryWPXmlcey-24" style="edgeStyle=none;curved=1;rounded=0;orthogonalLoop=1;jettySize=auto;html=1;exitX=0.5;exitY=1;exitDx=0;exitDy=0;entryX=0;entryY=0.5;entryDx=0;entryDy=0;entryPerimeter=0;fontSize=12;startSize=8;endSize=8;" edge="1" parent="1" source="4csjqJWBOvryWPXmlcey-6" target="4csjqJWBOvryWPXmlcey-11">
          <mxGeometry relative="1" as="geometry" />
        </mxCell>
      </root>
    </mxGraphModel>
  </diagram>
</mxfile>
